# xmcd
#
# Track frame offsets: 
#        150
#        21429
#        38931
#        73842
#        89183
#        106704
#        127958
#        148124
#        176310
#        201975
#
# Disc length: 2856 seconds
#
# Revision: 0
# Processed by: cddbd v1.5.2PL0 Copyright (c) Steve Scherf et al.
# Submitted via: ExactAudioCopy v1.0b3
#
DISCID=920b260a
DTITLE=Akina Adderley and The Vintage Playboys - Say Yes
DYEAR=2012
DGENRE=Soul
TTITLE0=Get Outta My Way
TTITLE1=Get Yourself Free
TTITLE2=Easy On Me
TTITLE3=Say Yes
TTITLE4=Not Mine
TTITLE5=Bumble Bee
TTITLE6=Savannah
TTITLE7=Good for a Minute
TTITLE8=Attitude
TTITLE9=Take It Back
EXTD=
EXTT0=
EXTT1=
EXTT2=
EXTT3=
EXTT4=
EXTT5=
EXTT6=
EXTT7=
EXTT8=
EXTT9=
PLAYORDER=
